<svg id="svg8" xmlns="http://www.w3.org/2000/svg" viewBox="0 0 512 512"><defs><style>.cls-1{fill:#181b23;}.cls-2{fill:#fe6701;}</style></defs><g id="layer24"><g id="FLAT-23"><path id="path1534" class="cls-1" d="M73.88,0C33.32,0,0,33.35,0,73.91v364C0,478.45,33.32,512,73.88,512h364c40.56,0,74.05-33.55,74.05-74.11v-364C512,33.35,478.47,0,437.92,0Z"/><path id="path1544" class="cls-2" d="M253.45,104.86a25.61,25.61,0,0,0-21.95,14.55l-30.81,64.66-70.45,11.35a25.6,25.6,0,0,0-13.65,43.85l52,49.11-11,70.7a25.6,25.6,0,0,0,37.6,26.46L258,351.33l63.86,32.31A25.6,25.6,0,0,0,358.51,356l-13.2-70.3,50.45-50.61A25.6,25.6,0,0,0,381,191.62L310,182.37l-32.51-63.71a25.62,25.62,0,0,0-24-13.8Z"/><path id="path1305" class="cls-2" d="M512,329.83c-34.15,15.45-69.07,29.72-104.51,42.71-134.72,49.35-274,79.06-404,86.2C12.53,489.27,40.59,512,73.88,512h364c40.56,0,74.05-33.55,74.05-74.11Z"/></g></g></svg>